<?xml version="1.0" standalone="no"?>
<!DOCTYPE svg PUBLIC "-//W3C//DTD SVG 20010904//EN"
 "http://www.w3.org/TR/2001/REC-SVG-20010904/DTD/svg10.dtd">
<svg version="1.0" xmlns="http://www.w3.org/2000/svg"
 width="16.000000pt" height="16.000000pt" viewBox="0 0 16.000000 16.000000"
 preserveAspectRatio="xMidYMid meet">
<metadata>
Created by potrace 1.11, written by Peter Selinger 2001-2013
</metadata>
<g transform="translate(0.000000,16.000000) scale(0.006154,-0.006154)"
fill="#000000" stroke="none">
<path d="M0 1300 l0 -1300 1300 0 1300 0 0 1300 0 1300 -1300 0 -1300 0 0
-1300z m1285 672 l90 -17 3 -79 3 -79 -33 7 c-165 36 -338 46 -428 25 -137
-31 -183 -151 -86 -223 50 -37 93 -47 234 -53 l132 -6 0 -63 0 -64 -93 0
c-209 0 -326 -52 -353 -158 -18 -67 32 -144 118 -183 49 -22 65 -24 218 -23
161 1 221 10 313 49 16 7 18 1 15 -76 l-3 -84 -75 -18 c-109 -27 -352 -34
-450 -13 -158 33 -264 114 -296 224 -41 142 31 282 167 327 27 9 49 20 49 24
0 4 -17 13 -38 19 -51 16 -121 77 -143 126 -39 87 -20 177 55 251 54 54 123
85 234 105 66 12 259 3 367 -18z m657 -562 c79 -22 135 -100 158 -217 17 -84
8 -313 -14 -374 -35 -97 -116 -159 -206 -158 -132 2 -207 90 -231 273 -17 132
0 283 42 366 47 94 148 138 251 110z"/>
<path d="M1830 1327 c-60 -30 -97 -170 -87 -332 7 -123 23 -180 62 -221 60
-63 144 -41 180 48 40 99 36 358 -6 445 -31 65 -91 89 -149 60z m77 -154 c22
-50 23 -225 2 -268 -20 -42 -44 -43 -59 -3 -36 101 -15 308 32 308 5 0 16 -17
25 -37z"/>
</g>
</svg>
